<svg width="717" height="595" viewBox="0 0 717 595" fill="none" xmlns="http://www.w3.org/2000/svg">
<circle cx="671.5" cy="212.5" r="180.5" stroke="#DDE7FF" stroke-width="64"/>
<path d="M33.5968 466.402L4.79954 474.811C2.15979 475.582 0.630704 478.372 1.40156 481.012L12.6141 519.408C13.3849 522.048 16.1754 523.577 18.8152 522.806L47.6124 514.397C50.2522 513.626 51.7813 510.836 51.0104 508.196L39.7979 469.8C39.0271 467.16 36.2366 465.631 33.5968 466.402ZM13.4004 477.508L18.2 476.107L21.7039 488.105L18.7785 487.006L16.9043 489.507L13.4004 477.508ZM46.2109 509.597L17.4136 518.007L6.20111 479.611L8.60088 478.91L14.9079 500.508L20.5305 493.006L29.3065 496.303L22.9995 474.705L34.9984 471.201L46.2109 509.597Z" fill="#00C08E" fill-opacity="0.8"/>
<path d="M666.221 566.663C665.586 565.759 664.876 564.909 664.099 564.096L652.312 586.476C650.604 584.602 648.646 583.071 646.444 581.912C642.929 580.061 638.922 579.233 634.721 579.492L646.577 556.982C644.491 553.674 641.57 550.829 637.852 548.87C634.54 547.126 630.983 546.298 627.481 546.26C626.714 546.236 626.001 546.692 625.639 547.381L613.803 569.853C613.235 570.932 613.702 572.153 614.683 572.669C614.979 572.825 615.314 572.907 615.688 572.914C618.544 572.921 621.452 573.502 624.135 574.915C627.964 576.931 630.694 580.318 632.35 583.994C636.318 583.28 640.655 583.616 644.485 585.633C647.167 587.045 649.291 589.115 650.903 591.484C651.12 591.789 651.377 592.019 651.673 592.175C652.635 592.682 653.925 592.387 654.493 591.308L666.339 568.817C666.701 568.128 666.674 567.282 666.221 566.663ZM631.962 575.758C630.254 573.884 628.296 572.353 626.094 571.194C623.893 570.034 621.522 569.285 619.012 568.937L628.721 550.501C631.235 550.708 633.635 551.402 635.892 552.591C638.112 553.76 640.069 555.385 641.662 557.34L631.962 575.758ZM664.406 554.539L650.257 558.968L640.949 576.641L654.608 573.142L664.406 554.539Z" fill="#F46583" fill-opacity="0.8"/>
<path d="M82.6838 115.516L91.3604 83.1347L95.4173 84.2218L91.6213 98.3887L97.5058 96.7117L101.763 101.106L105.559 86.9394L115.702 89.657L111.862 103.986C112.559 104.064 113.244 104.183 113.934 104.367C114.624 104.552 115.277 104.792 115.919 105.073L119.759 90.744C120.355 88.5178 119.018 86.2072 116.786 85.6093L92.4449 79.087C90.2137 78.4892 87.9 79.8215 87.3035 82.0477L78.6269 114.429C78.0304 116.655 79.3679 118.966 81.5992 119.564L96.3257 123.51C95.7991 122.067 95.4985 120.512 95.4427 118.935L82.6838 115.516ZM112.85 108.415C107.251 106.915 101.493 110.231 99.9959 115.817C98.4992 121.403 101.828 127.153 107.427 128.654C113.025 130.154 118.784 126.838 120.28 121.252C121.777 115.666 118.448 109.915 112.85 108.415ZM106.247 122.915L108.958 112.795L115.716 120.029L106.247 122.915Z" fill="#8692FF" fill-opacity="0.8"/>
</svg>
